<svg width="72" height="72" viewBox="0 0 72 72" fill="none" xmlns="http://www.w3.org/2000/svg">
<g clip-path="url(#clip0_2_3)">
<path d="M72 36C72.0064 40.8733 71.02 45.6968 69.1008 50.1763L68.9815 50.4511C65.7352 57.8364 60.1062 63.9197 52.9946 67.7284C45.883 71.537 37.6997 72.8509 29.7533 71.46C29.537 71.4217 29.3212 71.3819 29.1057 71.3407C26.8789 70.909 24.6984 70.266 22.5937 69.4204C22.2518 69.283 21.9124 69.1406 21.5755 68.9933C21.3454 68.8931 21.1154 68.7898 20.8875 68.6833C14.6524 65.7935 9.37333 61.1815 5.67259 55.3908C1.97185 49.6002 0.00366034 42.8722 0 36C0 16.118 16.118 0 36 0C55.882 0 72 16.118 72 36Z" fill="#3D6ED6"/>
<path opacity="0.2" d="M29.7533 71.46C29.537 71.4217 29.3212 71.3819 29.1057 71.3407C28.9651 67.2604 28.4826 58.8856 26.837 50.1146C25.937 45.3142 24.6877 40.3935 22.9548 35.9947C22.3611 34.4726 21.683 32.9849 20.9237 31.5383C19.1727 28.2312 17.0489 25.4471 14.4735 23.5608L14.8527 23.0432C16.9946 24.6131 18.9195 26.8172 20.6276 29.6553C21.1399 30.5052 21.632 31.412 22.1038 32.3755C22.6097 33.4065 23.0922 34.5011 23.5512 35.6592C23.8441 36.3962 24.1271 37.1588 24.4001 37.947C25.5888 41.3691 26.5992 45.2737 27.4314 49.6608C27.6156 50.6301 27.791 51.6231 27.9575 52.6399C29.2473 60.5183 29.6361 67.8025 29.7533 71.46Z" fill="black"/>
<path opacity="0.2" d="M21.5755 68.9933C21.3454 68.8931 21.1154 68.7898 20.8875 68.6833C20.6648 66.2656 20.2559 63.2663 19.5082 60.4193C19.1807 59.1406 18.7603 57.8876 18.2503 56.6702C17.3972 54.6731 16.2927 52.9754 14.8644 51.9284L15.2435 51.4118C16.7389 52.5067 17.8924 54.2375 18.7839 56.2622C19.7883 58.5437 20.4582 61.1989 20.9045 63.736C21.2357 65.6201 21.4445 67.4404 21.5755 68.9933Z" fill="black"/>
<path opacity="0.2" d="M10.8918 23.5459C12.6617 23.5459 14.0965 22.1111 14.0965 20.3412C14.0965 18.5713 12.6617 17.1365 10.8918 17.1365C9.12188 17.1365 7.68708 18.5713 7.68708 20.3412C7.68708 22.1111 9.12188 23.5459 10.8918 23.5459Z" fill="black"/>
<path opacity="0.2" d="M11.9238 51.1327C13.6937 51.1327 15.1285 49.6979 15.1285 47.928C15.1285 46.1581 13.6937 44.7233 11.9238 44.7233C10.1539 44.7233 8.71912 46.1581 8.71912 47.928C8.71912 49.6979 10.1539 51.1327 11.9238 51.1327Z" fill="black"/>
<path opacity="0.2" d="M23.6146 25.7242C22.935 29.5582 24.4352 33.0299 24.4352 33.0299C24.4352 33.0299 27.0372 30.2853 27.7167 26.4513C28.3963 22.6172 26.8961 19.1456 26.8961 19.1456C26.8961 19.1456 24.2941 21.8901 23.6146 25.7242Z" fill="black"/>
<path opacity="0.2" d="M12.964 34.8253C16.621 36.1626 20.2957 35.3044 20.2957 35.3044C20.2957 35.3044 18.0414 32.2782 14.3844 30.941C10.7274 29.6038 7.05266 30.4619 7.05266 30.4619C7.05266 30.4619 9.30703 33.4881 12.964 34.8253Z" fill="black"/>
<path opacity="0.2" d="M12.3439 59.2544C14.9071 60.1917 17.4865 59.5803 17.4865 59.5803C17.4865 59.5803 15.91 57.4492 13.3467 56.5119C10.7835 55.5746 8.20413 56.186 8.20413 56.186C8.20413 56.186 9.78064 58.3171 12.3439 59.2544Z" fill="black"/>
<path d="M35.9261 43.9721C43.6772 43.9721 49.9608 37.6885 49.9608 29.9374C49.9608 22.1862 43.6772 15.9027 35.9261 15.9027C28.1749 15.9027 21.8914 22.1862 21.8914 29.9374C21.8914 37.6885 28.1749 43.9721 35.9261 43.9721Z" fill="#A76A6A"/>
<path d="M30.4438 40.6827C30.4438 40.6827 32.1981 49.0158 32.1981 49.893C32.1981 50.7701 40.5312 54.7174 40.5312 54.7174L47.9871 53.4016L50.6187 45.5071C50.6187 45.5071 46.2328 38.9284 46.2328 36.2969L30.4438 40.6827Z" fill="#A76A6A"/>
<path d="M69.1008 50.1763L68.9815 50.4511C65.7352 57.8364 60.1062 63.9197 52.9946 67.7284C45.883 71.537 37.6997 72.8509 29.7533 71.46C29.537 71.4217 29.3212 71.3819 29.1057 71.3407C26.8789 70.909 24.6984 70.266 22.5937 69.4204C22.2518 69.283 21.9124 69.1406 21.5755 68.9933C21.3454 68.8931 21.1154 68.7898 20.8875 68.6833C18.8215 67.7262 16.8511 66.575 15.0028 65.2452L13.3392 60.4193L14.2743 59.7057L16.1979 58.2369L18.2503 56.6702L18.7839 56.2623L26.837 50.1146L27.4314 49.6608L31.6172 46.4656L31.6182 46.4645C31.6182 46.4645 36.1449 53.8402 42.7239 51.6472C49.303 49.4542 49.1592 43.1659 49.1592 43.1659L69.1008 50.1763Z" fill="#2F2E41"/>
<path d="M23.7552 18.6301C23.7552 18.6301 28.2112 8.97552 36.7518 11.2035C45.2924 13.4315 50.1197 16.7735 50.491 20.1154C50.8624 23.4574 50.3054 28.4704 50.3054 28.4704C50.3054 28.4704 49.377 21.6007 43.4357 23.0861C37.4945 24.5714 28.2112 23.4574 28.2112 23.4574L26.7259 36.8253C26.7259 36.8253 25.0549 34.4116 23.1983 35.897C21.3416 37.3823 17.814 21.6007 23.7552 18.6301Z" fill="#2F2E41"/>
<path d="M22.5937 69.4204C22.2518 69.283 21.9124 69.1406 21.5755 68.9933C21.3454 68.8931 21.1154 68.7898 20.8875 68.6833C17.4706 67.0989 14.3227 64.9893 11.5583 62.4312C12.5372 61.0978 13.3392 60.4193 13.3392 60.4193H19.9182L20.9045 63.736L22.5937 69.4204Z" fill="#2F2E41"/>
<path d="M63.3376 49.4542L68.9815 50.4511C67.4712 53.8919 65.4313 57.075 62.9361 59.8846L63.3376 49.4542Z" fill="#2F2E41"/>
</g>
<defs>
<clipPath id="clip0_2_3">
<rect width="72" height="72" fill="white"/>
</clipPath>
</defs>
</svg>
